<svg width="48" height="48" viewBox="0 0 48 48" fill="none" xmlns="http://www.w3.org/2000/svg">
<path d="M24.8254 12.1431L26.7646 16.0599L31.0846 16.6839C31.2632 16.7082 31.4313 16.7823 31.5697 16.8977C31.7082 17.0131 31.8113 17.1651 31.8674 17.3364C31.9235 17.5077 31.9303 17.6913 31.8869 17.8662C31.8435 18.0411 31.7518 18.2003 31.6222 18.3255L28.4926 21.3783L29.2318 25.6983C29.2589 25.8737 29.2369 26.0532 29.1682 26.2168C29.0995 26.3805 28.9868 26.5219 28.8426 26.6253C28.6984 26.7287 28.5283 26.7902 28.3513 26.8028C28.1743 26.8154 27.9972 26.7787 27.8398 26.6967L23.971 24.6615L20.0926 26.6967C19.9336 26.7803 19.7544 26.8176 19.5752 26.8044C19.3961 26.7912 19.2242 26.728 19.0792 26.622C18.9342 26.516 18.8219 26.3715 18.7549 26.2048C18.688 26.0381 18.6692 25.856 18.7006 25.6791L19.4398 21.3687L16.3198 18.3255C16.1932 18.2006 16.1038 18.0429 16.0616 17.87C16.0194 17.6972 16.026 17.5161 16.0808 17.3468C16.1356 17.1775 16.2363 17.0268 16.3717 16.9115C16.5071 16.7961 16.672 16.7207 16.8478 16.6935L21.1774 16.0599L23.1166 12.1335C23.1952 11.9712 23.3179 11.8343 23.4707 11.7386C23.6236 11.6428 23.8002 11.592 23.9806 11.592C24.1609 11.592 24.3376 11.6428 24.4904 11.7386C24.6432 11.8343 24.766 11.9712 24.8446 12.1335L24.8254 12.1431Z" fill="#0FA88A"/>
<path d="M33.6001 28.1271C33.7677 28.1261 33.932 28.0812 34.0768 27.997C34.2217 27.9128 34.342 27.7922 34.4257 27.6471L37.3057 22.6743C37.433 22.4528 37.4671 22.1898 37.4005 21.9431C37.3339 21.6965 37.172 21.4864 36.9505 21.3591C36.729 21.2318 36.466 21.1977 36.2194 21.2643C35.9727 21.3309 35.7626 21.4928 35.6353 21.7143L32.7649 26.6871C32.6805 26.8333 32.6361 26.9992 32.6363 27.168C32.6365 27.3369 32.6812 27.5027 32.7659 27.6487C32.8506 27.7948 32.9723 27.9159 33.1188 27.9999C33.2652 28.0839 33.4313 28.1278 33.6001 28.1271ZM26.9185 30.8343H23.9617C23.7071 30.8343 23.4629 30.9354 23.2829 31.1155C23.1029 31.2955 23.0017 31.5397 23.0017 31.7943C23.0017 32.0489 23.1029 32.2931 23.2829 32.4731C23.4629 32.6531 23.7071 32.7543 23.9617 32.7543H26.9185C27.1731 32.7543 27.4173 32.6531 27.5973 32.4731C27.7774 32.2931 27.8785 32.0489 27.8785 31.7943C27.8785 31.5397 27.7774 31.2955 27.5973 31.1155C27.4173 30.9354 27.1731 30.8343 26.9185 30.8343ZM28.1569 6.83429H19.8433C18.832 6.83558 17.8387 7.10224 16.9627 7.60763C16.0867 8.11301 15.3587 8.83942 14.8513 9.71429L10.6945 16.9143C10.1908 17.7906 9.92578 18.7836 9.92578 19.7943C9.92578 20.805 10.1908 21.798 10.6945 22.6743L14.8513 29.8743C15.3587 30.7492 16.0867 31.4756 16.9627 31.981C17.8387 32.4863 18.832 32.753 19.8433 32.7543C20.0979 32.7543 20.3421 32.6531 20.5221 32.4731C20.7022 32.2931 20.8033 32.0489 20.8033 31.7943C20.8033 31.5397 20.7022 31.2955 20.5221 31.1155C20.3421 30.9354 20.0979 30.8343 19.8433 30.8343C19.1701 30.8326 18.5091 30.6545 17.9263 30.3176C17.3435 29.9807 16.8592 29.4968 16.5217 28.9143L12.3649 21.7143C12.0279 21.1305 11.8505 20.4684 11.8505 19.7943C11.8505 19.1202 12.0279 18.458 12.3649 17.8743L16.5217 10.6743C16.8592 10.0918 17.3435 9.60791 17.9263 9.27101C18.5091 8.93412 19.1701 8.75595 19.8433 8.75429H28.1569C28.4115 8.75429 28.6557 8.65315 28.8357 8.47311C29.0158 8.29308 29.1169 8.0489 29.1169 7.79429C29.1169 7.53968 29.0158 7.2955 28.8357 7.11547C28.6557 6.93543 28.4115 6.83429 28.1569 6.83429Z" fill="#323C52"/>
<path d="M46.6186 35.3271L39.0058 27.6951L41.5018 23.3751C42.1301 22.2829 42.4608 21.0448 42.4608 19.7847C42.4608 18.5246 42.1301 17.2866 41.5018 16.1943L36.1162 6.86311C35.4843 5.7725 34.5771 4.86688 33.4854 4.23681C32.3938 3.60674 31.1558 3.27429 29.8954 3.27271H19.1338C17.8701 3.27093 16.6281 3.60178 15.5328 4.23202C14.4375 4.86226 13.5273 5.76968 12.8938 6.86311L7.51776 16.1943C6.88939 17.2866 6.55868 18.5246 6.55868 19.7847C6.55868 21.0448 6.88939 22.2829 7.51776 23.3751L10.0714 27.8199L2.46816 35.4231C2.3448 35.5446 2.25656 35.6971 2.21281 35.8646C2.16906 36.0321 2.17141 36.2083 2.21961 36.3746C2.26782 36.5408 2.36009 36.691 2.48666 36.8091C2.61322 36.9272 2.76937 37.0089 2.93856 37.0455L7.87296 38.1687L9.00576 43.1031C9.04345 43.2704 9.12526 43.4245 9.24268 43.5495C9.36011 43.6745 9.50887 43.7657 9.67349 43.8137C9.83812 43.8618 10.0126 43.8648 10.1788 43.8226C10.345 43.7803 10.4968 43.6943 10.6186 43.5735L17.9914 36.1911C18.3658 36.2583 18.7402 36.2871 19.1146 36.2871H29.8858C30.3178 36.2871 30.7498 36.2391 31.1626 36.1623L38.4586 43.4583C38.5794 43.5817 38.7312 43.6701 38.898 43.7144C39.0649 43.7588 39.2406 43.7572 39.4067 43.7101C39.5728 43.6629 39.7231 43.5718 39.8417 43.4464C39.9604 43.321 40.043 43.1659 40.081 42.9975L41.2138 38.0631L46.1482 36.9303C46.3147 36.8913 46.4678 36.8086 46.5916 36.6906C46.7154 36.5726 46.8055 36.4237 46.8524 36.2593C46.8994 36.0949 46.9016 35.9209 46.8588 35.7553C46.816 35.5897 46.7298 35.4386 46.609 35.3175L46.6186 35.3271ZM10.4938 40.9911L9.62016 37.1703C9.58135 36.9931 9.49312 36.8305 9.36569 36.7014C9.23826 36.5722 9.07685 36.4819 8.90016 36.4407L5.06016 35.5671L11.0794 29.5479L12.9034 32.7159C13.6174 33.9361 14.6761 34.9181 15.9466 35.5383L10.4938 41.0007V40.9911ZM19.1242 34.3767C18.2013 34.3765 17.2947 34.1343 16.4946 33.6745C15.6945 33.2147 15.0289 32.5532 14.5642 31.7559L9.18816 22.4247C8.7283 21.6243 8.4863 20.7174 8.4863 19.7943C8.4863 18.8712 8.7283 17.9643 9.18816 17.1639L14.5642 7.83271C15.0277 7.03369 15.6928 6.37026 16.493 5.90869C17.2931 5.44711 18.2004 5.20355 19.1242 5.20231H29.8858C30.8095 5.20355 31.7168 5.44711 32.517 5.90869C33.3171 6.37026 33.9822 7.03369 34.4458 7.83271L39.8218 17.1639C40.2816 17.9643 40.5236 18.8712 40.5236 19.7943C40.5236 20.7174 40.2816 21.6243 39.8218 22.4247L34.4458 31.7559C33.981 32.5532 33.3154 33.2147 32.5153 33.6745C31.7152 34.1343 30.8086 34.3765 29.8858 34.3767H19.1338H19.1242ZM40.2058 36.3351C40.0303 36.3755 39.8697 36.4645 39.7424 36.5918C39.6151 36.7191 39.5262 36.8797 39.4858 37.0551L38.6026 40.8855L33.1978 35.4807C34.4146 34.8566 35.4273 33.8972 36.1162 32.7159L38.0074 29.4327L44.0362 35.4519L40.2058 36.3351Z" fill="#323C52"/>
</svg>
